<svg width="1920" height="527" viewBox="0 0 1920 527" fill="none" xmlns="http://www.w3.org/2000/svg">
<path d="M0 498H988V506H0V498Z" fill="url(#paint0_linear_559_12518)"/>
<path d="M1004.74 452.549L1004.74 506.403L996.511 506.403L996.511 452.549L1004.74 452.549Z" fill="url(#paint1_linear_559_12518)"/>
<path d="M1276 498H1920V506H1276V498Z" fill="url(#paint2_linear_559_12518)"/>
<path fill-rule="evenodd" clip-rule="evenodd" d="M1111.68 20.5859H984.176C983.085 20.5859 982.039 21.0197 981.268 21.7919C980.495 22.5639 980.062 23.6111 980.062 24.7031V502.297C980.062 503.389 980.495 504.436 981.268 505.208C982.039 505.981 983.085 506.414 984.176 506.414H988.297V498.18H988.289V28.8203H1111.68V37.0547H1000.63C999.537 37.0547 998.492 37.4884 997.72 38.2606C996.948 39.0327 996.515 40.0799 996.515 41.1719V485.828C996.515 486.92 996.948 487.967 997.72 488.739C998.492 489.512 999.537 489.945 1000.63 489.945H1004.74V481.711H1004.74V45.2891H1111.68V481.711H1111.45V489.945H1111.68V498.18H1111.68V506.414H1111.68V522.883C1111.68 523.975 1112.12 525.022 1112.89 525.794C1113.66 526.567 1114.71 527 1115.8 527H1132.25C1132.63 527 1133 526.949 1133.36 526.847L1205.94 506.414H1206.49L1235.48 498.18H1235.19L1264.99 489.792C1265.85 489.549 1266.61 489.03 1267.15 488.314C1267.69 487.598 1267.99 486.726 1267.99 485.828V41.1719C1267.99 40.2742 1267.69 39.4012 1267.15 38.6856C1266.61 37.9701 1265.85 37.4513 1264.99 37.208L1235.19 28.8203H1276.21V498.18H1276.21V506.414H1280.32C1281.42 506.414 1282.46 505.981 1283.23 505.208C1284 504.436 1284.44 503.389 1284.44 502.297V24.7031C1284.44 23.6111 1284 22.5639 1283.23 21.7919C1282.46 21.0197 1281.42 20.5859 1280.32 20.5859H1205.94L1133.36 0.153365C1133 0.0514649 1132.63 0 1132.25 0H1115.8C1114.71 0 1113.66 0.433773 1112.89 1.20589C1112.12 1.97802 1111.68 3.02524 1111.68 4.11719V20.5859ZM1259.76 482.709L1136.36 517.448V9.55187L1259.76 44.2906V482.709ZM1128.14 518.766H1119.91V8.23438H1128.14V518.766Z" fill="url(#paint3_linear_559_12518)"/>
<path d="M1206.28 267.618C1205.67 267.618 1205.04 267.478 1204.45 267.183L1196.32 263.116C1194.31 262.113 1192.08 261.592 1189.83 261.592C1187.58 261.592 1185.36 262.113 1183.35 263.116L1177.49 266.044V290.27C1177.5 292.97 1176.55 295.584 1174.8 297.644C1173.06 299.704 1170.64 301.075 1167.98 301.513L1157.85 303.203C1156.22 303.476 1154.54 303.389 1152.95 302.95C1151.36 302.51 1149.88 301.728 1148.61 300.657C1147.35 299.588 1146.34 298.256 1145.64 296.754C1144.95 295.253 1144.59 293.616 1144.59 291.961V251.509C1144.59 248.152 1146.06 244.982 1148.61 242.812C1151.17 240.642 1154.54 239.713 1157.85 240.267L1167.98 241.957C1170.64 242.394 1173.06 243.765 1174.8 245.826C1176.55 247.885 1177.5 250.5 1177.49 253.2V256.839L1179.67 255.752C1186.03 252.566 1193.63 252.566 1200 255.752L1208.13 259.819C1208.95 260.234 1209.62 260.917 1210.01 261.757C1210.4 262.597 1210.5 263.546 1210.29 264.449C1210.07 265.352 1209.56 266.155 1208.84 266.731C1208.11 267.306 1207.21 267.618 1206.28 267.618ZM1166.63 250.078L1156.49 248.388C1155.24 248.18 1154.35 248.741 1153.93 249.095C1153.52 249.449 1152.82 250.233 1152.82 251.509V291.961C1152.82 293.236 1153.52 294.021 1153.93 294.375C1154.35 294.729 1155.24 295.292 1156.49 295.082L1166.63 293.392C1167.37 293.27 1168.04 292.889 1168.52 292.318C1169 291.747 1169.27 291.021 1169.27 290.272V267.617H1165.15C1164.06 267.617 1163.02 267.184 1162.25 266.411C1161.47 265.639 1161.04 264.592 1161.04 263.5C1161.04 262.408 1161.47 261.361 1162.25 260.589C1163.02 259.816 1164.06 259.383 1165.15 259.383H1169.27V253.199C1169.27 252.449 1169.01 251.724 1168.52 251.151C1168.04 250.58 1167.37 250.199 1166.63 250.078Z" fill="url(#paint4_linear_559_12518)"/>
<defs>
<linearGradient id="paint0_linear_559_12518" x1="1231.52" y1="494.563" x2="1231.23" y2="527.882" gradientUnits="userSpaceOnUse">
<stop stop-color="#78BC47"/>
<stop offset="1" stop-color="#4E963C"/>
</linearGradient>
<linearGradient id="paint1_linear_559_12518" x1="1008.28" y1="519.677" x2="974.89" y2="514.202" gradientUnits="userSpaceOnUse">
<stop stop-color="#78BC47"/>
<stop offset="1" stop-color="#4E963C"/>
</linearGradient>
<linearGradient id="paint2_linear_559_12518" x1="2078.73" y1="494.563" x2="2078.29" y2="527.879" gradientUnits="userSpaceOnUse">
<stop stop-color="#78BC47"/>
<stop offset="1" stop-color="#4E963C"/>
</linearGradient>
<linearGradient id="paint3_linear_559_12518" x1="1359.46" y1="-226.387" x2="443.232" y2="266.915" gradientUnits="userSpaceOnUse">
<stop stop-color="#78BC47"/>
<stop offset="1" stop-color="#4E963C"/>
</linearGradient>
<linearGradient id="paint4_linear_559_12518" x1="1128.37" y1="212.94" x2="1260.03" y2="340.645" gradientUnits="userSpaceOnUse">
<stop stop-color="#78BC47"/>
<stop offset="1" stop-color="#4E963C"/>
</linearGradient>
</defs>
</svg>
