<svg width="204" height="204" viewBox="0 0 204 204" fill="none" xmlns="http://www.w3.org/2000/svg">
<g filter="url(#filter0_d_975_28947)">
<path d="M177 97C177 52.8172 141.183 17 97 17C52.8172 17 17 52.8172 17 97C17 141.183 52.8172 177 97 177C141.183 177 177 141.183 177 97Z" fill="#6EB445" fill-opacity="0.25" shape-rendering="crispEdges"/>
<path d="M97 16C141.735 16 178 52.2649 178 97C178 141.735 141.735 178 97 178C52.2649 178 16 141.735 16 97C16 52.2649 52.2649 16 97 16Z" stroke="url(#paint0_linear_975_28947)" stroke-width="2" shape-rendering="crispEdges"/>
</g>
<path d="M159.5 97C159.5 62.4822 131.518 34.5 97 34.5C62.4822 34.5 34.5 62.4822 34.5 97C34.5 131.518 62.4822 159.5 97 159.5C131.518 159.5 159.5 131.518 159.5 97Z" stroke="white" stroke-opacity="0.5"/>
<g filter="url(#filter1_d_975_28947)">
<path d="M127 97C127 80.4315 113.569 67 97 67C80.4315 67 67 80.4315 67 97C67 113.569 80.4315 127 97 127C113.569 127 127 113.569 127 97Z" fill="url(#paint1_linear_975_28947)"/>
</g>
<defs>
<filter id="filter0_d_975_28947" x="0" y="0" width="204" height="204" filterUnits="userSpaceOnUse" color-interpolation-filters="sRGB">
<feFlood flood-opacity="0" result="BackgroundImageFix"/>
<feColorMatrix in="SourceAlpha" type="matrix" values="0 0 0 0 0 0 0 0 0 0 0 0 0 0 0 0 0 0 127 0" result="hardAlpha"/>
<feOffset dx="5" dy="5"/>
<feGaussianBlur stdDeviation="10"/>
<feComposite in2="hardAlpha" operator="out"/>
<feColorMatrix type="matrix" values="0 0 0 0 0.207396 0 0 0 0 0.234437 0 0 0 0 0.275 0 0 0 0.2 0"/>
<feBlend mode="normal" in2="BackgroundImageFix" result="effect1_dropShadow_975_28947"/>
<feBlend mode="normal" in="SourceGraphic" in2="effect1_dropShadow_975_28947" result="shape"/>
</filter>
<filter id="filter1_d_975_28947" x="52" y="52" width="100" height="100" filterUnits="userSpaceOnUse" color-interpolation-filters="sRGB">
<feFlood flood-opacity="0" result="BackgroundImageFix"/>
<feColorMatrix in="SourceAlpha" type="matrix" values="0 0 0 0 0 0 0 0 0 0 0 0 0 0 0 0 0 0 127 0" result="hardAlpha"/>
<feOffset dx="5" dy="5"/>
<feGaussianBlur stdDeviation="10"/>
<feComposite in2="hardAlpha" operator="out"/>
<feColorMatrix type="matrix" values="0 0 0 0 0.157743 0 0 0 0 0.245833 0 0 0 0 0.143403 0 0 0 0.3 0"/>
<feBlend mode="normal" in2="BackgroundImageFix" result="effect1_dropShadow_975_28947"/>
<feBlend mode="normal" in="SourceGraphic" in2="effect1_dropShadow_975_28947" result="shape"/>
</filter>
<linearGradient id="paint0_linear_975_28947" x1="-22.4366" y1="-51.7324" x2="309.958" y2="258.127" gradientUnits="userSpaceOnUse">
<stop stop-color="#78BC47"/>
<stop offset="1" stop-color="#4E963C"/>
</linearGradient>
<linearGradient id="paint1_linear_975_28947" x1="82.8824" y1="68.7647" x2="107.588" y2="125.235" gradientUnits="userSpaceOnUse">
<stop offset="0.252043" stop-color="white"/>
<stop offset="1" stop-color="#F2F2F2"/>
</linearGradient>
</defs>
</svg>
