<svg width="537" height="130" viewBox="0 0 537 130" fill="none" xmlns="http://www.w3.org/2000/svg">
<path d="M62.292 117.712L4.98702 113.27V15.1145L62.292 10.6727V117.712ZM76.2263 27.0108V14.8041H67.2789V5.34912L0 10.5592V117.824L67.2789 123.035V113.576H76.2263V99.887C74.5605 100.232 72.8917 100.492 71.236 100.681V108.655H67.2789V19.7294H71.236V27.8726C72.9106 27.5787 74.5765 27.3019 76.2263 27.0108Z" fill="#21252C"/>
<path fill-rule="evenodd" clip-rule="evenodd" d="M97.2836 88.0036C91.6801 94.7862 84.0202 98.2716 76.2267 99.8871C74.5608 100.232 72.8919 100.492 71.2362 100.681C69.9042 100.834 68.5822 100.938 67.2793 101.004V84.3052C68.6649 82.8246 69.9834 81.3378 71.2362 79.8538C73.0287 77.7427 74.6883 75.6375 76.2267 73.5675C76.5567 73.125 76.8808 72.6792 77.1991 72.2404C87.2937 69.3602 93.4436 66.308 93.6026 66.2294C94.5977 65.7496 95.0114 64.5703 94.5244 63.5913C94.0388 62.6157 92.8431 62.2047 91.8517 62.682C91.7308 62.7378 88.041 64.0272 81.8012 65.4329C89.5566 53.1294 92.6903 43.5862 92.7608 43.3826C93.1131 42.3474 92.56 41.2276 91.5114 40.8758C90.4693 40.5281 89.3314 41.0799 88.9754 42.1086C88.9082 42.3064 84.8338 50.8486 76.2267 62.0168C74.7038 63.9867 73.0447 66.0414 71.2362 68.1434C69.9868 69.5992 68.6683 71.0793 67.2793 72.5727V28.6161C68.6011 28.3466 69.9231 28.1057 71.2362 27.8727C72.9108 27.5787 74.5767 27.3019 76.2267 27.0108C85.4059 25.3978 94.0282 23.3869 100.7 15.5757C107.579 35.8064 113.936 67.8487 97.2836 88.0036Z" fill="url(#paint0_linear_975_23759)"/>
<path d="M43.6144 61.5801V66.1729L7.70117 66.0227V61.7344L43.6144 61.5801Z" fill="#21252C"/>
<path d="M50.6387 71.2551H54.9329V57.1284H50.6387V71.2551Z" fill="#21252C"/>
<path d="M59.3385 30.9131V35.6405L7.70117 38.2756V33.9907L59.3385 30.9131Z" fill="#21252C"/>
<path d="M59.3385 92.1165V96.844L7.70117 93.7669V89.4785L59.2625 92.1132L59.3385 92.1165Z" fill="#21252C"/>
<path d="M156.336 62.5178H147.318L163.958 22.3223H173.383L189.964 62.5178H180.946L177.979 54.9953H159.362L156.336 62.5178ZM167.74 33.4623L162.096 47.8753H175.245L169.543 33.4623C169.156 32.3904 168.865 31.3378 168.67 30.3041C168.438 31.4908 168.127 32.5434 167.74 33.4623ZM194.503 22.3223H203.23V54.7658H223.185V62.5178H194.503V22.3223ZM228.305 22.3223H256.988V29.9023H237.033V38.4579H255.243V45.9803H237.033V54.9381H257.337V62.5178H228.305V22.3223ZM269.729 62.5178H259.548L274.151 41.6736L260.421 22.3223H270.602L279.619 35.5296L288.579 22.3223H298.82L285.089 41.6736L299.693 62.5178H289.452L279.619 47.8753L269.729 62.5178Z" fill="#21252C"/>
<path d="M324.895 22.3227H340.138C347.119 22.3227 352.423 24.1509 356.051 27.8067C359.676 31.4625 361.49 36.3337 361.49 42.4205C361.49 48.507 359.676 53.3785 356.051 57.0344C352.423 60.6904 347.119 62.518 340.138 62.518H324.895V22.3227ZM349.418 51.7804C351.532 49.6747 352.589 46.5549 352.589 42.4205C352.589 38.2859 351.532 35.166 349.418 33.0609C347.303 30.9552 344.211 29.9027 340.138 29.9027H333.622V54.9385H340.138C344.211 54.9385 347.303 53.8855 349.418 51.7804ZM367.162 50.2872C366.252 47.799 365.796 45.1765 365.796 42.4205C365.796 39.6642 366.252 37.042 367.162 34.5535C368.074 32.0654 369.413 29.845 371.178 27.8929C372.943 25.9404 375.221 24.39 378.014 23.2415C380.807 22.0932 383.948 21.519 387.438 21.519C390.929 21.519 394.071 22.0932 396.864 23.2415C399.656 24.39 401.935 25.9404 403.7 27.8929C405.465 29.845 406.802 32.0654 407.714 34.5535C408.626 37.042 409.082 39.6642 409.082 42.4205C409.082 45.1765 408.626 47.799 407.714 50.2872C406.802 52.7754 405.465 54.9957 403.7 56.9482C401.935 58.9005 399.656 60.4507 396.864 61.5992C394.071 62.7477 390.929 63.3219 387.438 63.3219C383.948 63.3219 380.807 62.7477 378.014 61.5992C375.221 60.4507 372.943 58.9005 371.178 56.9482C369.413 54.9957 368.074 52.7754 367.162 50.2872ZM396.805 51.6652C399.016 49.2154 400.122 46.1337 400.122 42.4205C400.122 38.7072 399.016 35.6255 396.805 33.1755C394.595 30.7257 391.472 29.5004 387.438 29.5004C383.367 29.5004 380.224 30.7257 378.014 33.1755C375.803 35.6255 374.697 38.7072 374.697 42.4205C374.697 46.1337 375.803 49.2154 378.014 51.6652C380.224 54.1155 383.367 55.3404 387.438 55.3404C391.472 55.3404 394.595 54.1155 396.805 51.6652ZM414.638 50.2872C413.726 47.799 413.27 45.1765 413.27 42.4205C413.27 39.6642 413.726 37.042 414.638 34.5535C415.55 32.0654 416.887 29.845 418.652 27.8929C420.416 25.9404 422.696 24.39 425.489 23.2415C428.281 22.0932 431.423 21.519 434.914 21.519C438.404 21.519 441.547 22.0932 444.338 23.2415C447.131 24.39 449.411 25.9404 451.176 27.8929C452.94 29.845 454.278 32.0654 455.19 34.5535C456.102 37.042 456.556 39.6642 456.556 42.4205C456.556 45.1765 456.102 47.799 455.19 50.2872C454.278 52.7754 452.94 54.9957 451.176 56.9482C449.411 58.9005 447.131 60.4507 444.338 61.5992C441.547 62.7477 438.404 63.3219 434.914 63.3219C431.423 63.3219 428.281 62.7477 425.489 61.5992C422.696 60.4507 420.416 58.9005 418.652 56.9482C416.887 54.9957 415.55 52.7754 414.638 50.2872ZM444.281 51.6652C446.491 49.2154 447.597 46.1337 447.597 42.4205C447.597 38.7072 446.491 35.6255 444.281 33.1755C442.07 30.7257 438.948 29.5004 434.914 29.5004C430.841 29.5004 427.7 30.7257 425.489 33.1755C423.277 35.6255 422.173 38.7072 422.173 42.4205C422.173 46.1337 423.277 49.2154 425.489 51.6652C427.7 54.1155 430.841 55.3404 434.914 55.3404C438.948 55.3404 442.07 54.1155 444.281 51.6652ZM471.742 62.518H463.015V22.3227H479.77C481.903 22.3227 483.872 22.5334 485.675 22.9545C487.479 23.3757 489.186 24.0647 490.795 25.0219C492.405 25.9785 493.666 27.3377 494.576 29.0985C495.488 30.8594 495.944 32.965 495.944 35.4149C495.944 41.5017 492.977 45.4829 487.043 47.3587L499.202 62.518H489.137L478.141 48.4499H471.742V62.518ZM471.742 29.9027V41.2722H480.177C482.156 41.2722 483.794 40.803 485.094 39.8652C486.393 38.9274 487.043 37.5012 487.043 35.5872C487.043 33.635 486.403 32.1995 485.123 31.2805C483.843 30.3617 482.195 29.9027 480.177 29.9027H471.742ZM502.285 32.9457C502.285 29.2325 503.702 26.3999 506.532 24.4475C509.364 22.495 512.914 21.519 517.179 21.519C522.299 21.519 526.702 22.5527 530.387 24.6195V32.6585C526.935 30.2087 522.745 29.022 517.819 29.0985C513.398 29.175 511.188 30.4192 511.188 32.8309C511.188 33.9029 511.74 34.8407 512.846 35.6447C513.951 36.4485 515.329 37.09 516.977 37.5684C518.625 38.0467 520.41 38.6592 522.328 39.4059C524.248 40.1524 526.033 40.956 527.681 41.8174C529.329 42.6787 530.707 43.9515 531.812 45.636C532.918 47.3204 533.47 49.2729 533.47 51.4932C533.47 53.675 533.053 55.551 532.22 57.1205C531.386 58.6899 530.213 59.9149 528.7 60.7954C527.186 61.676 525.52 62.3172 523.696 62.719C521.874 63.1209 519.837 63.3219 517.588 63.3219C511.924 63.3219 506.902 62.1162 502.518 59.7045V51.4932C506.863 54.326 511.673 55.7424 516.948 55.7424C522.029 55.7424 524.569 54.4597 524.569 51.895C524.569 50.7467 524.017 49.7417 522.911 48.8804C521.805 48.019 520.428 47.33 518.78 46.8134C517.132 46.2964 515.347 45.6649 513.427 44.9184C511.507 44.1719 509.724 43.368 508.074 42.5067C506.426 41.6454 505.05 40.3915 503.944 38.7454C502.839 37.0992 502.285 35.166 502.285 32.9457Z" fill="#21252C"/>
<path d="M143.672 106.114L151.417 86.187H154.354L162.574 106.114H159.533L157.198 100.074H148.696L146.506 106.114H143.672ZM149.48 97.9314H156.361L154.255 92.4069C153.621 90.7279 153.141 89.3412 152.808 88.2464C152.531 89.545 152.159 90.8205 151.694 92.0822L149.48 97.9314ZM166.808 86.187H179.412V106.114H176.734V88.5247H169.486V98.7894C169.486 100.877 169.388 102.403 169.191 103.372C168.993 104.346 168.576 105.098 167.941 105.64C167.306 106.178 166.499 106.448 165.524 106.448C164.933 106.448 164.223 106.327 163.396 106.086L163.875 103.748C164.313 103.971 164.689 104.082 164.999 104.082C165.6 104.082 166.056 103.859 166.357 103.409C166.658 102.959 166.808 101.902 166.808 100.232V86.187ZM183.877 106.114V86.187H198.455V88.5247H186.557V94.6475H197.694V96.9849H186.557V103.776H198.935V106.114H183.877ZM202.685 86.187H205.364V94.9257C206.581 94.9257 207.441 94.689 207.936 94.2207C208.434 93.7522 209.062 92.6297 209.834 90.8485C210.393 89.5357 210.854 88.6129 211.22 88.0747C211.581 87.532 212.098 87.0775 212.77 86.711C213.439 86.3447 214.18 86.159 214.989 86.159C216.018 86.159 216.558 86.1684 216.615 86.187V88.4689C216.521 88.4689 216.342 88.4642 216.08 88.4552C215.783 88.4459 215.604 88.4412 215.54 88.4412C214.689 88.4412 214.054 88.6452 213.64 89.0534C213.218 89.4615 212.738 90.3335 212.193 91.665C211.516 93.3534 210.943 94.4199 210.472 94.8607C210.008 95.2965 209.444 95.6492 208.795 95.9137C210.097 96.266 211.384 97.4584 212.654 99.4804L216.813 106.114H213.495L210.106 100.714C209.18 99.2162 208.405 98.1865 207.784 97.6297C207.159 97.0684 206.357 96.7904 205.364 96.7904V106.114H202.685V86.187ZM233.121 99.1234L235.799 99.7915C235.24 101.958 234.233 103.604 232.781 104.741C231.331 105.877 229.554 106.448 227.452 106.448C225.282 106.448 223.514 106.011 222.151 105.135C220.788 104.263 219.755 102.997 219.045 101.34C218.334 99.68 217.978 97.9035 217.978 96.0019C217.978 93.9282 218.377 92.1194 219.18 90.5747C219.984 89.03 221.126 87.8567 222.607 87.0544C224.088 86.2519 225.719 85.853 227.496 85.853C229.515 85.853 231.212 86.3587 232.584 87.3744C233.961 88.39 234.921 89.8142 235.461 91.651L232.839 92.2632C232.372 90.816 231.692 89.7584 230.804 89.1C229.915 88.4365 228.796 88.1072 227.448 88.1072C225.901 88.1072 224.605 88.4735 223.566 89.2064C222.527 89.9394 221.795 90.9274 221.376 92.161C220.952 93.3995 220.741 94.675 220.741 95.9879C220.741 97.6809 220.991 99.1604 221.489 100.422C221.987 101.689 222.762 102.63 223.814 103.256C224.868 103.883 226.004 104.193 227.232 104.193C228.727 104.193 229.985 103.766 231.02 102.918C232.053 102.064 232.754 100.803 233.121 99.1234ZM236.27 106.114L244.014 86.187H246.951L255.171 106.114H252.13L249.795 100.074H241.294L239.104 106.114H236.27ZM242.077 97.9314H248.959L246.853 92.4069C246.218 90.7279 245.738 89.3412 245.406 88.2464C245.129 89.545 244.757 90.8205 244.291 92.0822L242.077 97.9314ZM257.404 106.114V86.187H260.082V94.397H270.515V86.187H273.195V106.114H270.515V96.7347H260.082V106.114H257.404ZM279.487 86.187H291.782V103.776H293.585V110.761H291.218V106.114H277.852V110.761H275.483V103.776H277.035C278.669 101.354 279.487 96.461 279.487 89.1V86.187ZM289.102 88.5247H282.053V89.545C282.053 91.2429 281.898 93.5665 281.587 96.5119C281.282 99.4575 280.672 101.879 279.769 103.776H289.102V88.5247ZM296.748 106.114V86.187H304.373C305.712 86.187 306.735 86.2519 307.446 86.377C308.437 86.5394 309.27 86.85 309.94 87.3049C310.612 87.7639 311.154 88.404 311.563 89.225C311.972 90.0462 312.173 90.9507 312.173 91.9385C312.173 93.6269 311.629 95.06 310.533 96.229C309.444 97.4025 307.465 97.987 304.607 97.987H299.428V106.114H296.748ZM299.428 95.6492H304.645C306.374 95.6492 307.596 95.3339 308.324 94.6984C309.049 94.063 309.41 93.1724 309.41 92.0174C309.41 91.1872 309.199 90.4727 308.772 89.8792C308.343 89.2852 307.779 88.891 307.085 88.7007C306.632 88.585 305.801 88.5247 304.592 88.5247H299.428V95.6492ZM314.12 96.4147C314.12 93.1122 315.021 90.5239 316.822 88.6545C318.622 86.7852 320.944 85.853 323.791 85.853C325.657 85.853 327.335 86.2934 328.833 87.1704C330.328 88.047 331.471 89.2714 332.254 90.8439C333.04 92.4115 333.435 94.1927 333.435 96.1825C333.435 98.2002 333.021 100.009 332.194 101.6C331.366 103.196 330.196 104.402 328.683 105.218C327.165 106.039 325.53 106.448 323.777 106.448C321.874 106.448 320.177 105.993 318.677 105.089C317.183 104.184 316.047 102.95 315.275 101.382C314.505 99.819 314.12 98.1634 314.12 96.4147ZM316.882 96.461C316.882 98.859 317.536 100.747 318.843 102.125C320.148 103.502 321.79 104.193 323.762 104.193C325.775 104.193 327.423 103.498 328.725 102.106C330.022 100.714 330.67 98.7385 330.67 96.1782C330.67 94.5594 330.394 93.1444 329.84 91.9385C329.284 90.7325 328.472 89.7955 327.405 89.1322C326.334 88.4689 325.135 88.1352 323.806 88.1352C321.916 88.1352 320.29 88.7752 318.927 90.0554C317.565 91.3355 316.882 93.4692 316.882 96.461ZM336.758 106.114V86.187H344.334C345.875 86.187 347.111 86.3862 348.045 86.7899C348.977 87.1934 349.705 87.8149 350.232 88.6545C350.762 89.4895 351.026 90.3662 351.026 91.2844C351.026 92.1334 350.791 92.9359 350.325 93.687C349.861 94.4385 349.155 95.0464 348.211 95.5102C349.432 95.8625 350.372 96.4657 351.026 97.319C351.684 98.168 352.012 99.1744 352.012 100.334C352.012 101.271 351.811 102.138 351.411 102.941C351.012 103.743 350.518 104.36 349.93 104.796C349.344 105.228 348.606 105.557 347.721 105.78C346.833 106.002 345.747 106.114 344.46 106.114H336.758ZM339.436 94.564H343.802C344.987 94.564 345.836 94.4852 346.35 94.3317C347.03 94.1325 347.544 93.7985 347.887 93.3347C348.229 92.871 348.403 92.291 348.403 91.5909C348.403 90.9274 348.243 90.3429 347.919 89.8419C347.599 89.3365 347.138 88.9885 346.542 88.8029C345.945 88.6175 344.921 88.5247 343.474 88.5247H339.436V94.564ZM339.436 103.776H344.465C345.33 103.776 345.936 103.743 346.289 103.678C346.899 103.572 347.417 103.391 347.829 103.136C348.243 102.88 348.582 102.51 348.849 102.023C349.118 101.535 349.249 100.974 349.249 100.339C349.249 99.5919 349.057 98.9472 348.667 98.3952C348.282 97.8434 347.745 97.4584 347.059 97.2355C346.379 97.0129 345.391 96.9017 344.107 96.9017H339.436V103.776ZM369.123 99.1234L371.803 99.7915C371.243 101.958 370.238 103.604 368.786 104.741C367.333 105.877 365.557 106.448 363.456 106.448C361.285 106.448 359.518 106.011 358.155 105.135C356.793 104.263 355.757 102.997 355.048 101.34C354.339 99.68 353.981 97.9035 353.981 96.0019C353.981 93.9282 354.381 92.1194 355.185 90.5747C355.989 89.03 357.13 87.8567 358.611 87.0544C360.091 86.2519 361.722 85.853 363.498 85.853C365.52 85.853 367.215 86.3587 368.588 87.3744C369.966 88.39 370.924 89.8142 371.464 91.651L368.841 92.2632C368.377 90.816 367.695 89.7584 366.807 89.1C365.918 88.4365 364.8 88.1072 363.451 88.1072C361.904 88.1072 360.607 88.4735 359.569 89.2064C358.53 89.9394 357.797 90.9274 357.379 92.161C356.956 93.3995 356.745 94.675 356.745 95.9879C356.745 97.6809 356.994 99.1604 357.492 100.422C357.99 101.689 358.765 102.63 359.819 103.256C360.871 103.883 362.009 104.193 363.235 104.193C364.729 104.193 365.989 103.766 367.023 102.918C368.058 102.064 368.757 100.803 369.123 99.1234ZM375.164 86.187H377.842V94.9257C379.06 94.9257 379.919 94.689 380.412 94.2207C380.91 93.7522 381.54 92.6297 382.312 90.8485C382.871 89.5357 383.33 88.6129 383.698 88.0747C384.06 87.532 384.576 87.0775 385.249 86.711C385.916 86.3447 386.659 86.159 387.467 86.159C388.496 86.159 389.036 86.1684 389.092 86.187V88.4689C388.999 88.4689 388.82 88.4642 388.557 88.4552C388.261 88.4459 388.082 88.4412 388.016 88.4412C387.165 88.4412 386.532 88.6452 386.118 89.0534C385.694 89.4615 385.215 90.3335 384.671 91.665C383.994 93.3534 383.42 94.4199 382.95 94.8607C382.486 95.2965 381.922 95.6492 381.272 95.9137C382.574 96.266 383.862 97.4584 385.13 99.4804L389.29 106.114H385.971L382.584 100.714C381.658 99.2162 380.882 98.1865 380.262 97.6297C379.637 97.0684 378.833 96.7904 377.842 96.7904V106.114H375.164V86.187ZM391.588 86.187H394.013V101.967L404.761 86.187H407.407V106.114H404.982V90.3755L394.263 106.114H391.588V86.187ZM411.857 106.114V86.187H426.435V88.5247H414.537V94.6475H425.674V96.9849H414.537V103.776H426.915V106.114H411.857ZM440.276 86.187H452.571V103.776H454.376V110.761H452.007V106.114H438.641V110.761H436.272V103.776H437.824C439.459 101.354 440.276 96.461 440.276 89.1V86.187ZM449.893 88.5247H442.843V89.545C442.843 91.2429 442.687 93.5665 442.377 96.5119C442.073 99.4575 441.461 101.879 440.558 103.776H449.893V88.5247ZM457.426 106.114V86.187H465.001C466.543 86.187 467.779 86.3862 468.715 86.7899C469.645 87.1934 470.373 87.8149 470.9 88.6545C471.43 89.4895 471.694 90.3662 471.694 91.2844C471.694 92.1334 471.459 92.9359 470.993 93.687C470.529 94.4385 469.824 95.0464 468.879 95.5102C470.101 95.8625 471.04 96.4657 471.694 97.319C472.352 98.168 472.682 99.1744 472.682 100.334C472.682 101.271 472.479 102.138 472.079 102.941C471.68 103.743 471.187 104.36 470.599 104.796C470.012 105.228 469.274 105.557 468.391 105.78C467.502 106.002 466.417 106.114 465.128 106.114H457.426ZM460.104 94.564H464.47C465.655 94.564 466.506 94.4852 467.018 94.3317C467.7 94.1325 468.212 93.7985 468.555 93.3347C468.897 92.871 469.071 92.291 469.071 91.5909C469.071 90.9274 468.912 90.3429 468.588 89.8419C468.267 89.3365 467.806 88.9885 467.21 88.8029C466.614 88.6175 465.589 88.5247 464.142 88.5247H460.104V94.564ZM460.104 103.776H465.133C465.998 103.776 466.604 103.743 466.957 103.678C467.568 103.572 468.085 103.391 468.499 103.136C468.913 102.88 469.25 102.51 469.517 102.023C469.786 101.535 469.917 100.974 469.917 100.339C469.917 99.5919 469.725 98.9472 469.335 98.3952C468.95 97.8434 468.414 97.4584 467.727 97.2355C467.047 97.0129 466.059 96.9017 464.777 96.9017H460.104V103.776ZM476.404 106.114V86.187H490.982V88.5247H479.082V94.6475H490.22V96.9849H479.082V103.776H491.461V106.114H476.404ZM495.155 106.114V86.187H502.777C504.116 86.187 505.141 86.2519 505.851 86.377C506.842 86.5394 507.674 86.85 508.347 87.3049C509.019 87.7639 509.559 88.404 509.968 89.225C510.376 90.0462 510.579 90.9507 510.579 91.9385C510.579 93.6269 510.034 95.06 508.939 96.229C507.848 97.4025 505.869 97.987 503.012 97.987H497.833V106.114H495.155ZM497.833 95.6492H503.049C504.78 95.6492 506.001 95.3339 506.73 94.6984C507.453 94.063 507.815 93.1724 507.815 92.0174C507.815 91.1872 507.604 90.4727 507.176 89.8792C506.749 89.2852 506.185 88.891 505.489 88.7007C505.038 88.585 504.206 88.5247 502.999 88.5247H497.833V95.6492ZM514.019 86.187H516.444V101.967L527.192 86.187H529.838V106.114H527.413V90.3755L516.694 106.114H514.019V86.187Z" fill="#21252C"/>
<defs>
<linearGradient id="paint0_linear_975_23759" x1="77.0528" y1="42.0345" x2="92.4927" y2="96.192" gradientUnits="userSpaceOnUse">
<stop stop-color="#6BB536"/>
<stop offset="0.141176" stop-color="#6BB536"/>
<stop offset="0.6" stop-color="#4E963C"/>
<stop offset="1" stop-color="#4E963C"/>
</linearGradient>
</defs>
</svg>
