<svg width="65" height="65" viewBox="0 0 65 65" fill="none" xmlns="http://www.w3.org/2000/svg">
<mask id="mask0_598_3143" style="mask-type:luminance" maskUnits="userSpaceOnUse" x="0" y="0" width="65" height="65">
<path d="M65 0H0V65H65V0Z" fill="white"/>
</mask>
<g mask="url(#mask0_598_3143)">
<path d="M32.5 0C19.0612 0 8.125 11.0121 8.125 24.551C8.125 43.7883 30.2088 63.6513 31.1485 64.4854C31.52 64.8179 32.0009 65.002 32.4995 65.0025C32.998 65.003 33.4793 64.8199 33.8515 64.4881C34.7912 63.6513 56.875 43.7883 56.875 24.551C56.875 11.0121 45.9387 0 32.5 0ZM32.5 37.9167C25.0331 37.9167 18.9583 31.8419 18.9583 24.375C18.9583 16.9081 25.0331 10.8333 32.5 10.8333C39.9669 10.8333 46.0417 16.9081 46.0417 24.375C46.0417 31.8419 39.9669 37.9167 32.5 37.9167Z" fill="url(#paint0_linear_598_3143)"/>
</g>
<defs>
<linearGradient id="paint0_linear_598_3143" x1="68.8908" y1="-27.9236" x2="-58.2511" y2="60.9645" gradientUnits="userSpaceOnUse">
<stop stop-color="#78BC47"/>
<stop offset="1" stop-color="#4E963C"/>
</linearGradient>
</defs>
</svg>
