<svg width="375" height="266" viewBox="0 0 375 266" fill="none" xmlns="http://www.w3.org/2000/svg">
<g clip-path="url(#clip0_669_4591)">
<path d="M-322 251.363H178.175V255.401H-322V251.363Z" fill="url(#paint0_linear_669_4591)"/>
<path d="M186.656 228.421L186.656 255.604L182.489 255.604L182.489 228.421L186.656 228.421Z" fill="url(#paint1_linear_669_4591)"/>
<path d="M323.977 251.363H650.002V255.401H323.977V251.363Z" fill="url(#paint2_linear_669_4591)"/>
<path fill-rule="evenodd" clip-rule="evenodd" d="M240.79 10.3906H176.239C175.686 10.3906 175.157 10.6096 174.766 10.9993C174.375 11.389 174.156 11.9176 174.156 12.4688V253.531C174.156 254.082 174.375 254.611 174.766 255C175.157 255.391 175.686 255.609 176.239 255.609H178.324V251.453H178.321V14.5469H240.79V18.7031H184.568C184.015 18.7031 183.486 18.9221 183.096 19.3118C182.705 19.7015 182.485 20.2301 182.485 20.7812V245.219C182.485 245.77 182.705 246.298 183.096 246.688C183.486 247.078 184.015 247.297 184.568 247.297H186.648V241.316H186.65V22.8594H240.79V243.141H240.668V247.297H240.79V251.453H240.788V255.609H240.79V263.922C240.79 264.473 241.009 265.001 241.4 265.391C241.79 265.781 242.32 266 242.872 266H251.201C251.392 266 251.581 265.974 251.765 265.923L288.507 255.609H288.787L303.461 251.453H303.314L318.399 247.219C318.835 247.097 319.221 246.835 319.494 246.473C319.769 246.112 319.917 245.672 319.917 245.219V20.7812C319.917 20.3282 319.769 19.8875 319.494 19.5263C319.221 19.1652 318.835 18.9033 318.399 18.7805L303.314 14.5469H324.082V251.453H324.08V255.609H326.164C326.716 255.609 327.246 255.391 327.636 255C328.027 254.611 328.246 254.082 328.246 253.531V12.4688C328.246 11.9176 328.027 11.389 327.636 10.9993C327.246 10.6096 326.716 10.3906 326.164 10.3906H288.507L251.765 0.0774102C251.581 0.0259766 251.392 0 251.201 0H242.872C242.32 0 241.79 0.218944 241.4 0.608667C241.009 0.998394 240.79 1.52697 240.79 2.07812V10.3906ZM315.753 243.645L253.284 261.179V4.82125L315.753 22.3554V243.645ZM249.119 261.844H244.954V4.15625H249.119V261.844Z" fill="url(#paint3_linear_669_4591)"/>
<path d="M288.682 135.078C288.37 135.078 288.051 135.008 287.753 134.859L283.639 132.806C282.619 132.3 281.494 132.037 280.355 132.037C279.215 132.037 278.091 132.3 277.07 132.806L274.108 134.284V146.512C274.112 147.874 273.628 149.194 272.746 150.234C271.863 151.274 270.639 151.966 269.291 152.187L264.161 153.04C263.336 153.177 262.49 153.134 261.682 152.912C260.875 152.69 260.126 152.295 259.488 151.755C258.848 151.215 258.334 150.543 257.983 149.785C257.63 149.027 257.448 148.201 257.449 147.365V126.947C257.449 125.253 258.192 123.653 259.488 122.558C260.783 121.463 262.486 120.993 264.161 121.273L269.291 122.126C270.639 122.347 271.863 123.039 272.746 124.079C273.628 125.119 274.112 126.438 274.108 127.801V129.638L275.208 129.089C278.431 127.481 282.279 127.481 285.502 129.089L289.615 131.142C290.035 131.351 290.371 131.696 290.569 132.12C290.768 132.544 290.818 133.023 290.71 133.479C290.602 133.934 290.343 134.34 289.975 134.631C289.607 134.921 289.151 135.078 288.682 135.078ZM268.606 126.225L263.477 125.372C262.84 125.267 262.391 125.55 262.18 125.729C261.969 125.908 261.614 126.304 261.614 126.947V147.365C261.614 148.009 261.969 148.405 262.18 148.584C262.391 148.762 262.84 149.047 263.477 148.941L268.606 148.087C268.98 148.026 269.32 147.834 269.565 147.546C269.81 147.257 269.944 146.891 269.943 146.513V135.078H267.861C267.309 135.078 266.779 134.859 266.389 134.469C265.998 134.079 265.779 133.551 265.779 133C265.779 132.449 265.998 131.92 266.389 131.531C266.779 131.14 267.309 130.922 267.861 130.922H269.943V127.8C269.944 127.422 269.811 127.056 269.565 126.767C269.321 126.479 268.98 126.286 268.606 126.225Z" fill="url(#paint4_linear_669_4591)"/>
</g>
<defs>
<linearGradient id="paint0_linear_669_4591" x1="195.787" y1="251.306" x2="195.487" y2="274.919" gradientUnits="userSpaceOnUse">
<stop stop-color="#78BC47"/>
<stop offset="1" stop-color="#4E963C"/>
</linearGradient>
<linearGradient id="paint1_linear_669_4591" x1="186.715" y1="256.561" x2="163.682" y2="251.006" gradientUnits="userSpaceOnUse">
<stop stop-color="#78BC47"/>
<stop offset="1" stop-color="#4E963C"/>
</linearGradient>
<linearGradient id="paint2_linear_669_4591" x1="661.481" y1="251.306" x2="661.021" y2="274.914" gradientUnits="userSpaceOnUse">
<stop stop-color="#78BC47"/>
<stop offset="1" stop-color="#4E963C"/>
</linearGradient>
<linearGradient id="paint3_linear_669_4591" x1="333.672" y1="-3.74652" x2="-170.796" y2="182.007" gradientUnits="userSpaceOnUse">
<stop stop-color="#78BC47"/>
<stop offset="1" stop-color="#4E963C"/>
</linearGradient>
<linearGradient id="paint4_linear_669_4591" x1="256.276" y1="120.744" x2="342.289" y2="177.802" gradientUnits="userSpaceOnUse">
<stop stop-color="#78BC47"/>
<stop offset="1" stop-color="#4E963C"/>
</linearGradient>
<clipPath id="clip0_669_4591">
<rect width="375" height="266" fill="white"/>
</clipPath>
</defs>
</svg>
