<svg width="239" height="58" viewBox="0 0 239 58" fill="none" xmlns="http://www.w3.org/2000/svg">
<path d="M27.724 52.5178L2.21955 50.5359V6.74359L27.724 4.76184V52.5178ZM33.9257 12.0512V6.60508H29.9435V2.38672L0 4.71124V52.5679L29.9435 54.8928V50.6727H33.9257V44.5652C33.1843 44.719 32.4416 44.8352 31.7047 44.9192V48.477H29.9435V8.80254H31.7047V12.4357C32.45 12.3045 33.1914 12.181 33.9257 12.0512Z" fill="#21252C"/>
<path fill-rule="evenodd" clip-rule="evenodd" d="M43.2975 39.2632C40.8036 42.2893 37.3944 43.8443 33.9258 44.5651C33.1843 44.7189 32.4416 44.8351 31.7047 44.9191C31.1118 44.9874 30.5235 45.034 29.9436 45.0633V37.6132C30.5603 36.9526 31.1471 36.2892 31.7047 35.6272C32.5025 34.6853 33.2411 33.746 33.9258 32.8225C34.0727 32.6251 34.2169 32.4262 34.3586 32.2304C38.8513 30.9454 41.5884 29.5837 41.6592 29.5486C42.1021 29.3345 42.2862 28.8084 42.0694 28.3716C41.8533 27.9363 41.3212 27.7529 40.8799 27.9659C40.8261 27.9908 39.1839 28.5661 36.4068 29.1932C39.8585 23.7039 41.2532 19.4462 41.2845 19.3554C41.4413 18.8935 41.1952 18.3939 40.7285 18.237C40.2647 18.0818 39.7582 18.328 39.5998 18.787C39.5699 18.8752 37.7565 22.6863 33.9258 27.6691C33.248 28.548 32.5096 29.4647 31.7047 30.4025C31.1486 31.052 30.5618 31.7124 29.9436 32.3787V12.7672C30.5319 12.647 31.1202 12.5395 31.7047 12.4356C32.45 12.3044 33.1914 12.1809 33.9258 12.0511C38.0111 11.3314 41.8486 10.4342 44.818 6.94922C47.8796 15.9753 50.7087 30.271 43.2975 39.2632Z" fill="url(#paint0_linear_115_119)"/>
<path d="M19.4112 27.4746V29.5237L3.42749 29.4567V27.5435L19.4112 27.4746Z" fill="#21252C"/>
<path d="M22.5364 31.7909H24.4476V25.4883H22.5364V31.7909Z" fill="#21252C"/>
<path d="M26.4095 13.792V15.9012L3.42749 17.0768V15.1651L26.4095 13.792Z" fill="#21252C"/>
<path d="M26.4095 41.0984V43.2075L3.42749 41.8346V39.9214L26.3756 41.0969L26.4095 41.0984Z" fill="#21252C"/>
<path d="M69.5809 27.8928H65.5674L72.9731 9.95947H77.1678L84.5474 27.8928H80.534L79.2135 24.5367H70.9274L69.5809 27.8928ZM74.6562 14.9296L72.1444 21.36H77.9967L75.4587 14.9296C75.2866 14.4514 75.1568 13.9818 75.0704 13.5206C74.9669 14.05 74.8287 14.5197 74.6562 14.9296ZM86.5677 9.95947H90.4518V24.4343H99.3331V27.8928H86.5677V9.95947ZM101.612 9.95947H114.377V13.3413H105.496V17.1585H113.601V20.5146H105.496V24.5112H114.533V27.8928H101.612V9.95947ZM120.048 27.8928H115.517L122.016 18.5931L115.905 9.95947H120.437L124.45 15.852L128.438 9.95947H132.995L126.884 18.5931L133.384 27.8928H128.826L124.45 21.36L120.048 27.8928Z" fill="#21252C"/>
<path d="M144.599 9.95915H151.384C154.491 9.95915 156.851 10.7748 158.466 12.4059C160.079 14.0369 160.886 16.2102 160.886 18.9259C160.886 21.6414 160.079 23.8148 158.466 25.4459C156.851 27.077 154.491 27.8924 151.384 27.8924H144.599V9.95915ZM155.513 23.1018C156.454 22.1623 156.925 20.7704 156.925 18.9259C156.925 17.0812 156.454 15.6892 155.513 14.75C154.572 13.8106 153.196 13.341 151.384 13.341H148.483V24.5108H151.384C153.196 24.5108 154.572 24.041 155.513 23.1018ZM163.411 22.4356C163.006 21.3255 162.803 20.1555 162.803 18.9259C162.803 17.6961 163.006 16.5262 163.411 15.416C163.817 14.3059 164.413 13.3153 165.198 12.4443C165.984 11.5732 166.997 10.8815 168.241 10.3691C169.484 9.85675 170.882 9.60059 172.435 9.60059C173.989 9.60059 175.387 9.85675 176.63 10.3691C177.873 10.8815 178.887 11.5732 179.673 12.4443C180.458 13.3153 181.053 14.3059 181.459 15.416C181.865 16.5262 182.068 17.6961 182.068 18.9259C182.068 20.1555 181.865 21.3255 181.459 22.4356C181.053 23.5457 180.458 24.5363 179.673 25.4074C178.887 26.2785 177.873 26.9701 176.63 27.4825C175.387 27.9949 173.989 28.2511 172.435 28.2511C170.882 28.2511 169.484 27.9949 168.241 27.4825C166.997 26.9701 165.984 26.2785 165.198 25.4074C164.413 24.5363 163.817 23.5457 163.411 22.4356ZM176.604 23.0504C177.588 21.9574 178.08 20.5825 178.08 18.9259C178.08 17.2692 177.588 15.8943 176.604 14.8012C175.62 13.7082 174.231 13.1615 172.435 13.1615C170.623 13.1615 169.224 13.7082 168.241 14.8012C167.257 15.8943 166.764 17.2692 166.764 18.9259C166.764 20.5825 167.257 21.9574 168.241 23.0504C169.224 24.1436 170.623 24.6901 172.435 24.6901C174.231 24.6901 175.62 24.1436 176.604 23.0504ZM184.541 22.4356C184.135 21.3255 183.932 20.1555 183.932 18.9259C183.932 17.6961 184.135 16.5262 184.541 15.416C184.947 14.3059 185.542 13.3153 186.327 12.4443C187.113 11.5732 188.127 10.8815 189.37 10.3691C190.613 9.85675 192.011 9.60059 193.565 9.60059C195.118 9.60059 196.517 9.85675 197.759 10.3691C199.002 10.8815 200.017 11.5732 200.802 12.4443C201.588 13.3153 202.183 14.3059 202.589 15.416C202.995 16.5262 203.197 17.6961 203.197 18.9259C203.197 20.1555 202.995 21.3255 202.589 22.4356C202.183 23.5457 201.588 24.5363 200.802 25.4074C200.017 26.2785 199.002 26.9701 197.759 27.4825C196.517 27.9949 195.118 28.2511 193.565 28.2511C192.011 28.2511 190.613 27.9949 189.37 27.4825C188.127 26.9701 187.113 26.2785 186.327 25.4074C185.542 24.5363 184.947 23.5457 184.541 22.4356ZM197.734 23.0504C198.718 21.9574 199.21 20.5825 199.21 18.9259C199.21 17.2692 198.718 15.8943 197.734 14.8012C196.75 13.7082 195.36 13.1615 193.565 13.1615C191.752 13.1615 190.354 13.7082 189.37 14.8012C188.386 15.8943 187.894 17.2692 187.894 18.9259C187.894 20.5825 188.386 21.9574 189.37 23.0504C190.354 24.1436 191.752 24.6901 193.565 24.6901C195.36 24.6901 196.75 24.1436 197.734 23.0504ZM209.956 27.8924H206.072V9.95915H213.529C214.478 9.95915 215.354 10.0531 216.157 10.241C216.96 10.4289 217.72 10.7363 218.436 11.1634C219.152 11.5902 219.714 12.1966 220.119 12.9822C220.524 13.7678 220.727 14.7073 220.727 15.8003C220.727 18.5159 219.407 20.2921 216.766 21.1291L222.177 27.8924H217.698L212.804 21.6159H209.956V27.8924ZM209.956 13.341V18.4135H213.71C214.591 18.4135 215.32 18.2042 215.899 17.7858C216.476 17.3674 216.766 16.7311 216.766 15.8772C216.766 15.0062 216.481 14.3657 215.911 13.9557C215.342 13.5458 214.608 13.341 213.71 13.341H209.956ZM223.55 14.6986C223.55 13.042 224.18 11.7782 225.44 10.9071C226.7 10.036 228.28 9.60059 230.178 9.60059C232.457 9.60059 234.417 10.0618 236.056 10.9839V14.5705C234.52 13.4775 232.656 12.9481 230.463 12.9822C228.496 13.0163 227.512 13.5714 227.512 14.6474C227.512 15.1257 227.758 15.5441 228.25 15.9028C228.741 16.2614 229.355 16.5476 230.088 16.7611C230.822 16.9745 231.616 17.2477 232.47 17.5809C233.324 17.9139 234.119 18.2725 234.852 18.6568C235.586 19.0411 236.199 19.6089 236.691 20.3605C237.183 21.112 237.429 21.9831 237.429 22.9737C237.429 23.9471 237.243 24.7841 236.873 25.4843C236.501 26.1845 235.979 26.731 235.306 27.1239C234.632 27.5168 233.89 27.8028 233.079 27.9821C232.268 28.1614 231.361 28.2511 230.36 28.2511C227.84 28.2511 225.604 27.7132 223.653 26.6372V22.9737C225.587 24.2376 227.728 24.8695 230.075 24.8695C232.337 24.8695 233.467 24.2972 233.467 23.153C233.467 22.6406 233.222 22.1922 232.729 21.808C232.237 21.4237 231.624 21.1163 230.891 20.8858C230.157 20.6551 229.363 20.3733 228.508 20.0403C227.654 19.7072 226.86 19.3486 226.126 18.9643C225.392 18.58 224.78 18.0206 224.288 17.2862C223.796 16.5517 223.55 15.6892 223.55 14.6986Z" fill="#21252C"/>
<path d="M63.9434 47.343L67.3903 38.4527H68.6976L72.356 47.343H71.0027L69.9632 44.6485H66.1793L65.2046 47.343H63.9434ZM66.5285 43.6925H69.5908L68.6538 41.2277C68.3713 40.4786 68.1579 39.86 68.0094 39.3715C67.8861 39.9509 67.7208 40.52 67.5138 41.0829L66.5285 43.6925ZM74.2404 38.4527H79.8501V47.343H78.6581V39.4957H75.4323V44.0753C75.4323 45.0066 75.3888 45.6874 75.3008 46.12C75.2129 46.5545 75.0272 46.8899 74.7447 47.1319C74.4621 47.3719 74.1028 47.492 73.6692 47.492C73.4061 47.492 73.0901 47.4381 72.7219 47.3305L72.9352 46.2875C73.1298 46.387 73.2971 46.4366 73.4354 46.4366C73.703 46.4366 73.9059 46.3372 74.0397 46.1365C74.1735 45.9358 74.2404 45.4639 74.2404 44.719V38.4527ZM81.8372 47.343V38.4527H88.3256V39.4957H83.03V42.2274H87.9866V43.2702H83.03V46.3H88.539V47.343H81.8372ZM90.2083 38.4527H91.4002V42.3515C91.9421 42.3515 92.3247 42.2459 92.5449 42.037C92.7666 41.828 93.0462 41.3271 93.3897 40.5325C93.6384 39.9467 93.8436 39.535 94.0067 39.2949C94.1675 39.0528 94.3975 38.85 94.6966 38.6865C94.9943 38.5231 95.3242 38.4402 95.6842 38.4402C96.1419 38.4402 96.3824 38.4444 96.408 38.4527V39.4708C96.3659 39.4708 96.2862 39.4687 96.1697 39.4647C96.0375 39.4605 95.9578 39.4584 95.9292 39.4584C95.5504 39.4584 95.2678 39.5494 95.0837 39.7316C94.8958 39.9137 94.6824 40.3027 94.4396 40.8968C94.1382 41.65 93.8834 42.1258 93.6738 42.3225C93.4671 42.517 93.216 42.6743 92.9274 42.7923C93.5069 42.9495 94.0796 43.4815 94.6448 44.3836L96.4959 47.343H95.0191L93.5107 44.9342C93.0988 44.2657 92.7538 43.8064 92.4773 43.5579C92.1992 43.3075 91.8422 43.1834 91.4002 43.1834V47.343H90.2083V38.4527ZM103.754 44.2243L104.946 44.5224C104.697 45.4888 104.249 46.2234 103.603 46.7304C102.957 47.2375 102.167 47.492 101.231 47.492C100.265 47.492 99.4781 47.2974 98.8716 46.9063C98.2651 46.5173 97.8051 45.9523 97.4895 45.2134C97.1731 44.4727 97.0145 43.6801 97.0145 42.8317C97.0145 41.9065 97.1919 41.0995 97.5496 40.4103C97.9074 39.7211 98.4154 39.1977 99.0745 38.8397C99.7337 38.4817 100.46 38.3037 101.25 38.3037C102.149 38.3037 102.905 38.5293 103.515 38.9825C104.128 39.4356 104.555 40.071 104.796 40.8905L103.628 41.1636C103.421 40.518 103.118 40.0461 102.723 39.7524C102.327 39.4563 101.829 39.3094 101.229 39.3094C100.541 39.3094 99.9637 39.4729 99.5014 39.7998C99.0392 40.1268 98.7131 40.5676 98.5267 41.1181C98.338 41.6706 98.2441 42.2397 98.2441 42.8254C98.2441 43.5807 98.3553 44.2408 98.577 44.8038C98.7987 45.3688 99.1437 45.7888 99.6119 46.0683C100.081 46.3476 100.587 46.4862 101.133 46.4862C101.798 46.4862 102.358 46.2958 102.819 45.9172C103.279 45.5363 103.591 44.9735 103.754 44.2243ZM105.156 47.343L108.602 38.4527H109.909L113.568 47.343H112.214L111.175 44.6485H107.391L106.417 47.343H105.156ZM107.74 43.6925H110.803L109.866 41.2277C109.583 40.4786 109.37 39.86 109.222 39.3715C109.098 39.9509 108.933 40.52 108.725 41.0829L107.74 43.6925ZM114.561 47.343V38.4527H115.753V42.1156H120.397V38.4527H121.589V47.343H120.397V43.1586H115.753V47.343H114.561ZM124.39 38.4527H129.862V46.3H130.665V49.4165H129.611V47.343H123.662V49.4165H122.608V46.3H123.298C124.026 45.2197 124.39 43.0365 124.39 39.7524V38.4527ZM128.669 39.4957H125.532V39.9509C125.532 40.7084 125.463 41.7451 125.325 43.0592C125.189 44.3734 124.917 45.4536 124.515 46.3H128.669V39.4957ZM132.072 47.343V38.4527H135.466C136.062 38.4527 136.517 38.4817 136.834 38.5375C137.275 38.6099 137.645 38.7485 137.944 38.9515C138.243 39.1562 138.484 39.4419 138.666 39.8081C138.848 40.1745 138.937 40.5781 138.937 41.0188C138.937 41.772 138.695 42.4115 138.207 42.933C137.723 43.4566 136.842 43.7173 135.57 43.7173H133.265V47.343H132.072ZM133.265 42.6743H135.587C136.356 42.6743 136.9 42.5336 137.224 42.2501C137.547 41.9666 137.708 41.5693 137.708 41.054C137.708 40.6836 137.614 40.3648 137.424 40.1C137.233 39.835 136.982 39.6591 136.673 39.5742C136.471 39.5226 136.102 39.4957 135.563 39.4957H133.265V42.6743ZM139.804 43.0158C139.804 41.5424 140.205 40.3876 141.006 39.5536C141.807 38.7196 142.841 38.3037 144.108 38.3037C144.938 38.3037 145.686 38.5002 146.352 38.8914C147.017 39.2826 147.526 39.8288 147.875 40.5304C148.224 41.2298 148.4 42.0245 148.4 42.9123C148.4 43.8124 148.216 44.6196 147.848 45.3294C147.48 46.0413 146.959 46.5793 146.285 46.9436C145.61 47.3099 144.882 47.492 144.102 47.492C143.255 47.492 142.5 47.2891 141.832 46.8857C141.167 46.4821 140.661 45.9316 140.318 45.2322C139.975 44.5347 139.804 43.796 139.804 43.0158ZM141.033 43.0365C141.033 44.1064 141.324 44.9487 141.906 45.5633C142.487 46.1778 143.217 46.4862 144.095 46.4862C144.991 46.4862 145.725 46.1759 146.304 45.555C146.881 44.9342 147.17 44.0526 147.17 42.9103C147.17 42.1881 147.047 41.5568 146.8 41.0188C146.553 40.4807 146.191 40.0627 145.716 39.7667C145.24 39.4708 144.706 39.3219 144.115 39.3219C143.274 39.3219 142.55 39.6074 141.943 40.1786C141.337 40.7497 141.033 41.7017 141.033 43.0365ZM149.879 47.343V38.4527H153.251C153.937 38.4527 154.487 38.5416 154.903 38.7217C155.318 38.9017 155.642 39.179 155.876 39.5536C156.112 39.9261 156.229 40.3173 156.229 40.7269C156.229 41.1057 156.125 41.4637 155.917 41.7989C155.711 42.1342 155.397 42.4054 154.977 42.6123C155.52 42.7695 155.939 43.0386 156.229 43.4193C156.522 43.7981 156.668 44.2471 156.668 44.7645C156.668 45.1824 156.579 45.5694 156.401 45.9274C156.223 46.2855 156.003 46.5608 155.742 46.7552C155.481 46.9477 155.152 47.0947 154.759 47.194C154.363 47.2933 153.88 47.343 153.307 47.343H149.879ZM151.071 42.1902H153.014C153.542 42.1902 153.92 42.155 154.148 42.0865C154.451 41.9976 154.68 41.8486 154.832 41.6417C154.985 41.4348 155.062 41.176 155.062 40.8637C155.062 40.5676 154.991 40.3069 154.846 40.0833C154.704 39.8579 154.499 39.7026 154.234 39.6198C153.968 39.5371 153.512 39.4957 152.868 39.4957H151.071V42.1902ZM151.071 46.3H153.31C153.694 46.3 153.964 46.2855 154.121 46.2565C154.393 46.209 154.623 46.1283 154.807 46.0144C154.991 45.9005 155.142 45.7351 155.261 45.5178C155.38 45.3004 155.439 45.0501 155.439 44.7665C155.439 44.4333 155.353 44.1457 155.179 43.8994C155.008 43.6532 154.769 43.4815 154.464 43.3821C154.161 43.2827 153.721 43.2331 153.15 43.2331H151.071V46.3ZM164.284 44.2243L165.477 44.5224C165.227 45.4888 164.78 46.2234 164.134 46.7304C163.487 47.2375 162.697 47.492 161.762 47.492C160.795 47.492 160.009 47.2974 159.403 46.9063C158.796 46.5173 158.335 45.9523 158.02 45.2134C157.704 44.4727 157.545 43.6801 157.545 42.8317C157.545 41.9065 157.723 41.0995 158.08 40.4103C158.438 39.7211 158.946 39.1977 159.605 38.8397C160.264 38.4817 160.99 38.3037 161.78 38.3037C162.68 38.3037 163.435 38.5293 164.046 38.9825C164.659 39.4356 165.085 40.071 165.326 40.8905L164.158 41.1636C163.952 40.518 163.648 40.0461 163.253 39.7524C162.857 39.4563 162.36 39.3094 161.759 39.3094C161.071 39.3094 160.494 39.4729 160.032 39.7998C159.569 40.1268 159.243 40.5676 159.057 41.1181C158.869 41.6706 158.775 42.2397 158.775 42.8254C158.775 43.5807 158.885 44.2408 159.107 44.8038C159.329 45.3688 159.674 45.7888 160.143 46.0683C160.611 46.3476 161.118 46.4862 161.663 46.4862C162.328 46.4862 162.889 46.2958 163.349 45.9172C163.81 45.5363 164.121 44.9735 164.284 44.2243ZM166.972 38.4527H168.164V42.3515C168.706 42.3515 169.089 42.2459 169.308 42.037C169.53 41.828 169.81 41.3271 170.154 40.5325C170.403 39.9467 170.607 39.535 170.771 39.2949C170.932 39.0528 171.162 38.85 171.461 38.6865C171.758 38.5231 172.088 38.4402 172.448 38.4402C172.906 38.4402 173.147 38.4444 173.171 38.4527V39.4708C173.13 39.4708 173.05 39.4687 172.933 39.4647C172.802 39.4605 172.722 39.4584 172.693 39.4584C172.314 39.4584 172.032 39.5494 171.848 39.7316C171.659 39.9137 171.446 40.3027 171.204 40.8968C170.902 41.65 170.647 42.1258 170.438 42.3225C170.231 42.517 169.98 42.6743 169.691 42.7923C170.27 42.9495 170.844 43.4815 171.408 44.3836L173.259 47.343H171.782L170.275 44.9342C169.863 44.2657 169.517 43.8064 169.241 43.5579C168.963 43.3075 168.606 43.1834 168.164 43.1834V47.343H166.972V38.4527ZM174.282 38.4527H175.361V45.493L180.145 38.4527H181.323V47.343H180.244V40.3214L175.473 47.343H174.282V38.4527ZM183.303 47.343V38.4527H189.792V39.4957H184.496V42.2274H189.453V43.2702H184.496V46.3H190.005V47.343H183.303ZM195.951 38.4527H201.424V46.3H202.227V49.4165H201.173V47.343H195.224V49.4165H194.169V46.3H194.86C195.588 45.2197 195.951 43.0365 195.951 39.7524V38.4527ZM200.232 39.4957H197.094V39.9509C197.094 40.7084 197.025 41.7451 196.886 43.0592C196.751 44.3734 196.479 45.4536 196.077 46.3H200.232V39.4957ZM203.584 47.343V38.4527H206.956C207.642 38.4527 208.192 38.5416 208.609 38.7217C209.023 38.9017 209.347 39.179 209.581 39.5536C209.817 39.9261 209.934 40.3173 209.934 40.7269C209.934 41.1057 209.83 41.4637 209.623 41.7989C209.416 42.1342 209.102 42.4054 208.682 42.6123C209.226 42.7695 209.644 43.0386 209.934 43.4193C210.228 43.7981 210.374 44.2471 210.374 44.7645C210.374 45.1824 210.284 45.5694 210.106 45.9274C209.928 46.2855 209.709 46.5608 209.447 46.7552C209.186 46.9477 208.857 47.0947 208.464 47.194C208.069 47.2933 207.586 47.343 207.012 47.343H203.584ZM204.776 42.1902H206.719C207.247 42.1902 207.626 42.155 207.853 42.0865C208.157 41.9976 208.385 41.8486 208.537 41.6417C208.69 41.4348 208.767 41.176 208.767 40.8637C208.767 40.5676 208.697 40.3069 208.552 40.0833C208.41 39.8579 208.204 39.7026 207.939 39.6198C207.674 39.5371 207.218 39.4957 206.573 39.4957H204.776V42.1902ZM204.776 46.3H207.015C207.399 46.3 207.669 46.2855 207.826 46.2565C208.098 46.209 208.328 46.1283 208.513 46.0144C208.697 45.9005 208.847 45.7351 208.966 45.5178C209.085 45.3004 209.144 45.0501 209.144 44.7665C209.144 44.4333 209.058 44.1457 208.885 43.8994C208.713 43.6532 208.475 43.4815 208.169 43.3821C207.866 43.2827 207.426 43.2331 206.856 43.2331H204.776V46.3ZM212.031 47.343V38.4527H218.519V39.4957H213.223V42.2274H218.18V43.2702H213.223V46.3H218.732V47.343H212.031ZM220.376 47.343V38.4527H223.769C224.365 38.4527 224.821 38.4817 225.137 38.5375C225.578 38.6099 225.948 38.7485 226.247 38.9515C226.546 39.1562 226.787 39.4419 226.969 39.8081C227.151 40.1745 227.241 40.5781 227.241 41.0188C227.241 41.772 226.998 42.4115 226.511 42.933C226.026 43.4566 225.145 43.7173 223.873 43.7173H221.568V47.343H220.376ZM221.568 42.6743H223.89C224.66 42.6743 225.203 42.5336 225.528 42.2501C225.85 41.9666 226.011 41.5693 226.011 41.054C226.011 40.6836 225.917 40.3648 225.727 40.1C225.536 39.835 225.285 39.6591 224.976 39.5742C224.775 39.5226 224.404 39.4957 223.867 39.4957H221.568V42.6743ZM228.772 38.4527H229.851V45.493L234.635 38.4527H235.813V47.343H234.733V40.3214L229.962 47.343H228.772V38.4527Z" fill="#21252C"/>
<defs>
<linearGradient id="paint0_linear_115_119" x1="34.2935" y1="18.7539" x2="41.1963" y2="42.9076" gradientUnits="userSpaceOnUse">
<stop stop-color="#6BB536"/>
<stop offset="0.141176" stop-color="#6BB536"/>
<stop offset="0.6" stop-color="#4E963C"/>
<stop offset="1" stop-color="#4E963C"/>
</linearGradient>
</defs>
</svg>
