<svg width="11" height="11" viewBox="0 0 11 11" fill="none" xmlns="http://www.w3.org/2000/svg">
<path d="M6.45569 0.795117L7.42513 2.747C7.55576 3.01694 7.90641 3.27304 8.20206 3.32841L9.9553 3.61911C11.076 3.806 11.3373 4.62274 10.5328 5.43948L9.16463 6.81687C8.93773 7.04529 8.8071 7.49519 8.88273 7.8205L9.27463 9.5232C9.58403 10.866 8.86898 11.392 7.69328 10.686L6.05004 9.70317C5.75439 9.5232 5.25936 9.5232 4.96371 9.70317L3.32048 10.686C2.14477 11.3851 1.42972 10.866 1.73912 9.5232L2.13102 7.8205C2.1929 7.48827 2.06227 7.03836 1.83537 6.80995L0.467156 5.43256C-0.337274 4.62274 -0.0760057 3.806 1.0447 3.61219L2.79794 3.32149C3.09359 3.27304 3.44423 3.01002 3.57487 2.74008L4.54431 0.788195C5.07372 -0.263882 5.92628 -0.263882 6.45569 0.795117Z" fill="white"/>
</svg>
